Disney's A Christmas Carol (2010) 1080p MKV AC3+DTS NLSubs-DMT

Verenigde Staten
Animatie / Familie
96 minuten

Op Kerstavond bezoeken drie geesten de oude vrek Ebenezer Scrooge (Jim Carrey), 
die een vreselijke hekel heeft aan kerst en menig medemens erg slecht behandelt. 
De drie geesten proberen Scrooge ervan te overtuigen dat kerst helemaal geen 
periode is om chagrijnig, vrekkig en egoïstisch te zijn. Ze willen Scrooge met 
z'n eigen nare eigenschappen confronteren, maar zullen er vooral alles aan doen 
om het leven van deze man een hele andere wending te geven...
-------------------------------------------------------------------------------------------

PLOT

An animated retelling of Charles Dickens' classic novel about a Victorian-era miser 
taken on a journey of self-redemption, courtesy of several mysterious Christmas apparitions. 
-------------------------------------------------------------------------------------------
 
http://www.youtube.com/watch?v=VZ3lr3urgDU

MM:    http://www.moviemeter.nl/film/48120

IMDB:    http://www.imdb.com/title/tt1067106/
-------------------------------------------------------------------------------------------

INFO

Source.......: 1080p
Video........: 1920x1080
Audio 1......: DTS
Audio 2......: AC3
Subs.........: Dutch

Enjoy


General
Complete name                    : Disney's.A.Christmas.Carol.2010.1080p.MKV.AC3.DTS.NLSubs-DMT.mkv
Format                           : Matroska
File size                        : 7.09 GiB
Duration                         : 1h 35mn
Overall bit rate                 : 10.6 Mbps
Movie name                       : NLUPPER002
Encoded date                     : UTC 2010-11-16 06:56:19
Writing application              : mkvmerge v4.3.0 ('Escape from the Island') built on Sep  5 2010 10:30:51
Writing library                  : libebml v1.0.0 + libmatroska v1.0.0

Video
ID                               : 1
Format                           : AVC
Format/Info                      : Advanced Video Codec
Format profile                   : High@L4.0
Format settings, CABAC           : Yes
Format settings, ReFrames        : 3 frames
Muxing mode                      : Container profile=Unknown@4.0
Codec ID                         : V_MPEG4/ISO/AVC
Duration                         : 1h 35mn
Bit rate mode                    : Variable
Bit rate                         : 8 472 Kbps
Maximum bit rate                 : 25.0 Mbps
Width                            : 1 920 pixels
Height                           : 1 080 pixels
Display aspect ratio             : 16:9
Frame rate                       : 23.976 fps
Color space                      : YUV
Chroma subsampling               : 4:2:0
Bit depth                        : 8 bits
Scan type                        : Progressive
Bits/(Pixel*Frame)               : 0.170
Stream size                      : 5.51 GiB (78%)
Writing library                  : x264 core 105 r1732 2b04482
Encoding settings                : cabac=1 / ref=3 / deblock=1:0:0 / analyse=0x3:0x133 / 
me=umh / subme=7 / psy=1 / psy_rd=1.00:0.00 / mixed_ref=1 / me_range=16 / chroma_me=1 / 
trellis=1 / 8x8dct=1 / cqm=0 / deadzone=21,11 / fast_pskip=1 / chroma_qp_offset=-2 / 
threads=12 / sliced_threads=0 / nr=0 / decimate=1 / interlaced=0 / constrained_intra=0 / 
bframes=3 / b_pyramid=0 / b_adapt=1 / b_bias=0 / direct=1 / weightb=1 / open_gop=0 / 
weightp=2 / keyint=240 / keyint_min=24 / scenecut=40 / intra_refresh=0 / rc_lookahead=40 / 
rc=2pass / mbtree=1 / bitrate=8472 / ratetol=1.0 / qcomp=0.60 / qpmin=10 / qpmax=51 / 
qpstep=4 / cplxblur=20.0 / qblur=0.5 / vbv_maxrate=25000 / vbv_bufsize=25000 / 
ip_ratio=1.40 / aq=1:1.00 / nal_hrd=vbr

Audio #1
ID                               : 2
Format                           : DTS
Format/Info                      : Digital Theater Systems
Muxing mode                      : Header stripping
Codec ID                         : A_DTS
Duration                         : 1h 35mn
Bit rate mode                    : Constant
Bit rate                         : 1 510 Kbps
Channel(s)                       : 6 channels
Channel positions                : Front: L C R, Side: L R, LFE
Sampling rate                    : 48.0 KHz
Bit depth                        : 24 bits
Stream size                      : 1.01 GiB (14%)
Title                            : DTS
Language                         : English

Audio #2
ID                               : 3
Format                           : AC-3
Format/Info                      : Audio Coding 3
Mode extension                   : CM (complete main)
Muxing mode                      : Header stripping
Codec ID                         : A_AC3
Duration                         : 1h 35mn
Bit rate mode                    : Constant
Bit rate                         : 640 Kbps
Channel(s)                       : 6 channels
Channel positions                : Front: L C R, Side: L R, LFE
Sampling rate                    : 48.0 KHz
Bit depth                        : 16 bits
Stream size                      : 439 MiB (6%)
Title                            : AC3
Language                         : English

Text
ID                               : 4
Format                           : UTF-8
Codec ID                         : S_TEXT/UTF8
Codec ID/Info                    : UTF-8 Plain Text
Title                            : Nederlands
Language                         : Dutch

